/* XPM */
static char *magick[] = {
/* columns rows colors chars-per-pixel */
"22 22 6 1",
"  c Gray0",
". c #808080",
"X c #a0a0a4",
"o c gainsboro",
"O c Gray100",
"+ c None",
/* pixels */
"++++++++++++++++++++++",
"++++++++++++++++++++++",
"++++++++++++++++++++++",
"++++++++++++++++++++++",
"++++++++++++++++++++++",
"++++++++     +++++++++",
"++++++  OOOOO  +++++++",
"+++++ OOooooooo ++++++",
"++++o Oooo oooo X+++++",
"++++ Ooooo ooooX +++++",
"++++ Ooooo ooooX X++++",
"++++ Ooooo ooooX X++++",
"++++ Ooooo ooooX X++++",
"++++ Ooooo ooooX X++++",
"+++++ oooo oooX .X++++",
"+++++ oooooooXX X+++++",
"++++++  XXXXX  XX+++++",
"+++++++X     XXX++++++",
"+++++++++XXXXX++++++++",
"++++++++++++++++++++++",
"++++++++++++++++++++++",
"++++++++++++++++++++++"
};
