/* XPM */
static char *magick[] = {
/* columns rows colors chars-per-pixel */
"15 15 2 1",
"  c gray0",
". c white",
/* pixels */
"...............",
".  .........  .",
".    ......  ..",
"..    ....  ...",
"....   .. .....",
".....     .....",
"......   ......",
".....     .....",
"....   ..  ....",
"...   ....  ...",
"..   ...... ...",
"..   ....... ..",
"... ...........",
"...............",
"..............."
};
