ply
format ascii 1.0
element vertex 12
property float x 
property float y 
property float z 
element face 16
property list uchar int vertex_index 
end_header
328051.553801 4692038.45952 27.9898989899 
328050.933494 4692032.35735 27.9898989899 
328043.803876 4692033.04942 27.9898989899 
328042.176725 4692020.8728 27.9898989899 
328072.208663 4692017.13817 27.9898989899 
328074.506568 4692035.26917 27.9898989899 
328051.553801 4692038.45952 14.758432813 
328050.933494 4692032.35735 14.758432813 
328043.803876 4692033.04942 14.758432813 
328042.176725 4692020.8728 14.758432813 
328072.208663 4692017.13817 14.758432813 
328074.506568 4692035.26917 14.758432813 
3 6 1 0 
3 6 7 1 
3 7 2 1 
3 7 8 2 
3 8 3 2 
3 8 9 3 
3 9 4 3 
3 9 10 4 
3 10 5 4 
3 10 11 5 
3 11 0 5 
3 0 11 6 
3 1 5 0 
3 2 3 1 
3 4 5 3 
3 1 3 5 

