ply
format ascii 1.0
element vertex 8
property float x 
property float y 
property float z 
element face 10
property list uchar int vertex_index 
end_header
328292.033831 4692074.03656 23.0303030303 
328357.225716 4692066.22624 23.0303030303 
328360.14606 4692089.82631 23.0303030303 
328295.486374 4692098.94901 23.0303030303 
328292.033831 4692074.03656 1.96916131007 
328357.225716 4692066.22624 1.96916131007 
328360.14606 4692089.82631 1.96916131007 
328295.486374 4692098.94901 1.96916131007 
3 4 1 0 
3 4 5 1 
3 5 2 1 
3 5 6 2 
3 6 3 2 
3 6 7 3 
3 7 0 3 
3 0 7 4 
3 1 3 0 
3 2 3 1 

