ply
format ascii 1.0
element vertex 16
property float x 
property float y 
property float z 
element face 22
property list uchar int vertex_index 
end_header
328043.729979 4692033.03877 24.0494847465 
328040.49131 4692033.41038 24.0494847465 
328038.051295 4692015.11169 24.0494847465 
328086.654063 4692008.96547 24.0494847465 
328089.803203 4692033.20006 24.0494847465 
328074.663599 4692035.24856 24.0494847465 
328072.337271 4692017.08559 24.0494847465 
328042.107092 4692020.82803 24.0494847465 
328043.729979 4692033.03877 3.70222984563 
328040.49131 4692033.41038 3.70222984563 
328038.051295 4692015.11169 3.70222984563 
328086.654063 4692008.96547 3.70222984563 
328089.803203 4692033.20006 3.70222984563 
328074.663599 4692035.24856 3.70222984563 
328072.337271 4692017.08559 3.70222984563 
328042.107092 4692020.82803 3.70222984563 
3 8 1 0 
3 8 9 1 
3 9 2 1 
3 9 10 2 
3 10 3 2 
3 10 11 3 
3 11 4 3 
3 11 12 4 
3 12 5 4 
3 12 13 5 
3 13 6 5 
3 13 14 6 
3 14 7 6 
3 14 15 7 
3 15 0 7 
3 0 15 8 
3 1 7 0 
3 4 5 3 
3 2 7 1 
3 6 3 5 
3 7 2 6 
3 3 6 2 

