ply
format ascii 1.0
element vertex 8
property float x 
property float y 
property float z 
element face 10
property list uchar int vertex_index 
end_header
328245.462515 4692078.46681 24.0694827058 
328246.268985 4692084.47448 24.0694827058 
328235.021041 4692085.92399 24.0694827058 
328234.366629 4692079.91206 24.0694827058 
328245.462515 4692078.46681 2.83764411795 
328246.268985 4692084.47448 2.83764411795 
328235.021041 4692085.92399 2.83764411795 
328234.366629 4692079.91206 2.83764411795 
3 4 1 0 
3 4 5 1 
3 5 2 1 
3 5 6 2 
3 6 3 2 
3 6 7 3 
3 7 0 3 
3 0 7 4 
3 1 3 0 
3 2 3 1 

