ply
format ascii 1.0
element vertex 80
property float x 
property float y 
property float z 
element face 118
property list uchar int vertex_index 
end_header
328204.536486 4692198.63648 83.9772472197 
328203.763412 4692191.00664 83.9772472197 
328208.974557 4692190.5526 83.9772472197 
328208.465806 4692185.00324 83.9772472197 
328212.720555 4692184.61741 83.9772472197 
328212.817189 4692186.19056 83.9772472197 
328217.035701 4692185.88716 83.9772472197 
328217.135888 4692187.61023 83.9772472197 
328221.416217 4692187.36936 83.9772472197 
328221.531326 4692188.56094 83.9772472197 
328220.942993 4692188.63342 83.9772472197 
328221.942732 4692196.38192 83.9772472197 
328238.866516 4692194.38813 83.9772472197 
328238.123996 4692186.94161 83.9772472197 
328237.46532 4692186.97571 83.9772472197 
328237.272051 4692185.11195 83.9772472197 
328241.208476 4692184.53428 83.9772472197 
328241.020181 4692182.71883 83.9772472197 
328245.057504 4692182.27474 83.9772472197 
328244.867788 4692180.30227 83.9772472197 
328249.501258 4692179.87239 83.9772472197 
328250.8314 4692190.97396 83.9772472197 
328246.767788 4692191.39602 83.9772472197 
328246.828895 4692193.42889 83.9772472197 
328243.039553 4692193.6385 83.9772472197 
328243.117002 4692195.62306 83.9772472197 
328239.111655 4692196.02239 83.9772472197 
328239.279344 4692198.03678 83.9772472197 
328235.190151 4692198.34445 83.9772472197 
328235.338655 4692200.29703 83.9772472197 
328226.99045 4692201.24419 83.9772472197 
328226.803577 4692199.6952 83.9772472197 
328222.65612 4692199.98226 83.9772472197 
328222.543143 4692198.32455 83.9772472197 
328218.46532 4692198.72886 83.9772472197 
328218.285551 4692197.1756 83.9772472197 
328213.983195 4692197.34258 83.9772472197 
328213.705372 4692194.04565 83.9772472197 
328209.934504 4692194.36042 83.9772472197 
328210.178932 4692198.04389 83.9772472197 
328204.536486 4692198.63648 17.8614427099 
328203.763412 4692191.00664 17.8614427099 
328208.974557 4692190.5526 17.8614427099 
328208.465806 4692185.00324 17.8614427099 
328212.720555 4692184.61741 17.8614427099 
328212.817189 4692186.19056 17.8614427099 
328217.035701 4692185.88716 17.8614427099 
328217.135888 4692187.61023 17.8614427099 
328221.416217 4692187.36936 17.8614427099 
328221.531326 4692188.56094 17.8614427099 
328220.942993 4692188.63342 17.8614427099 
328221.942732 4692196.38192 17.8614427099 
328238.866516 4692194.38813 17.8614427099 
328238.123996 4692186.94161 17.8614427099 
328237.46532 4692186.97571 17.8614427099 
328237.272051 4692185.11195 17.8614427099 
328241.208476 4692184.53428 17.8614427099 
328241.020181 4692182.71883 17.8614427099 
328245.057504 4692182.27474 17.8614427099 
328244.867788 4692180.30227 17.8614427099 
328249.501258 4692179.87239 17.8614427099 
328250.8314 4692190.97396 17.8614427099 
328246.767788 4692191.39602 17.8614427099 
328246.828895 4692193.42889 17.8614427099 
328243.039553 4692193.6385 17.8614427099 
328243.117002 4692195.62306 17.8614427099 
328239.111655 4692196.02239 17.8614427099 
328239.279344 4692198.03678 17.8614427099 
328235.190151 4692198.34445 17.8614427099 
328235.338655 4692200.29703 17.8614427099 
328226.99045 4692201.24419 17.8614427099 
328226.803577 4692199.6952 17.8614427099 
328222.65612 4692199.98226 17.8614427099 
328222.543143 4692198.32455 17.8614427099 
328218.46532 4692198.72886 17.8614427099 
328218.285551 4692197.1756 17.8614427099 
328213.983195 4692197.34258 17.8614427099 
328213.705372 4692194.04565 17.8614427099 
328209.934504 4692194.36042 17.8614427099 
328210.178932 4692198.04389 17.8614427099 
3 40 1 0 
3 40 41 1 
3 41 2 1 
3 41 42 2 
3 42 3 2 
3 42 43 3 
3 43 4 3 
3 43 44 4 
3 44 5 4 
3 44 45 5 
3 45 6 5 
3 45 46 6 
3 46 7 6 
3 46 47 7 
3 47 8 7 
3 47 48 8 
3 48 9 8 
3 48 49 9 
3 49 10 9 
3 49 50 10 
3 50 11 10 
3 50 51 11 
3 51 12 11 
3 51 52 12 
3 52 13 12 
3 52 53 13 
3 53 14 13 
3 53 54 14 
3 54 15 14 
3 54 55 15 
3 55 16 15 
3 55 56 16 
3 56 17 16 
3 56 57 17 
3 57 18 17 
3 57 58 18 
3 58 19 18 
3 58 59 19 
3 59 20 19 
3 59 60 20 
3 60 21 20 
3 60 61 21 
3 61 22 21 
3 61 62 22 
3 62 23 22 
3 62 63 23 
3 63 24 23 
3 63 64 24 
3 64 25 24 
3 64 65 25 
3 65 26 25 
3 65 66 26 
3 66 27 26 
3 66 67 27 
3 67 28 27 
3 67 68 28 
3 68 29 28 
3 68 69 29 
3 69 30 29 
3 69 70 30 
3 70 31 30 
3 70 71 31 
3 71 32 31 
3 71 72 32 
3 72 33 32 
3 72 73 33 
3 73 34 33 
3 73 74 34 
3 74 35 34 
3 74 75 35 
3 75 36 35 
3 75 76 36 
3 76 37 36 
3 76 77 37 
3 77 38 37 
3 77 78 38 
3 78 39 38 
3 78 79 39 
3 79 0 39 
3 0 79 40 
3 1 39 0 
3 3 4 2 
3 6 7 5 
3 8 9 7 
3 14 15 13 
3 17 18 16 
3 19 20 18 
3 21 22 20 
3 23 24 22 
3 25 26 24 
3 27 28 26 
3 29 30 28 
3 32 33 31 
3 34 35 33 
3 36 37 35 
3 39 1 38 
3 5 2 4 
3 10 7 9 
3 16 13 15 
3 18 20 16 
3 22 24 20 
3 26 28 24 
3 31 28 30 
3 35 37 33 
3 38 1 37 
3 7 2 5 
3 11 7 10 
3 13 16 12 
3 20 24 16 
3 28 31 24 
3 33 37 31 
3 2 37 1 
3 7 11 2 
3 16 24 12 
3 37 2 31 
3 31 12 24 
3 11 31 2 
3 12 31 11 

