ply
format ascii 1.0
element vertex 12
property float x 
property float y 
property float z 
element face 16
property list uchar int vertex_index 
end_header
328043.536 4692058.86143 28.9551066218 
328041.28499 4692040.14351 28.9551066218 
328089.806045 4692033.38906 28.9551066218 
328093.156269 4692058.90477 28.9551066218 
328086.406082 4692059.61176 28.9551066218 
328085.807092 4692053.53446 28.9551066218 
328043.536 4692058.86143 3.75139271503 
328041.28499 4692040.14351 3.75139271503 
328089.806045 4692033.38906 3.75139271503 
328093.156269 4692058.90477 3.75139271503 
328086.406082 4692059.61176 3.75139271503 
328085.807092 4692053.53446 3.75139271503 
3 6 1 0 
3 6 7 1 
3 7 2 1 
3 7 8 2 
3 8 3 2 
3 8 9 3 
3 9 4 3 
3 9 10 4 
3 10 5 4 
3 10 11 5 
3 11 0 5 
3 0 11 6 
3 1 5 0 
3 3 4 2 
3 2 5 1 
3 5 2 4 

