ply
format ascii 1.0
element vertex 22
property float x 
property float y 
property float z 
element face 31
property list uchar int vertex_index 
end_header
328411.976128 4692133.2222 21.0171411081 
328419.037534 4692129.21756 21.0171411081 
328426.43716 4692125.08929 21.0171411081 
328434.15369 4692122.33805 21.0171411081 
328442.07912 4692119.20028 21.0171411081 
328449.957654 4692116.97556 21.0171411081 
328458.038693 4692115.45002 21.0171411081 
328466.292396 4692114.3501 21.0171411081 
328471.409748 4692154.38155 21.0171411081 
328450.662515 4692156.84856 21.0171411081 
328430.604512 4692168.66423 21.0171411081 
328411.976128 4692133.2222 1.77632044349 
328419.037534 4692129.21756 1.77632044349 
328426.43716 4692125.08929 1.77632044349 
328434.15369 4692122.33805 1.77632044349 
328442.07912 4692119.20028 1.77632044349 
328449.957654 4692116.97556 1.77632044349 
328458.038693 4692115.45002 1.77632044349 
328466.292396 4692114.3501 1.77632044349 
328471.409748 4692154.38155 1.77632044349 
328450.662515 4692156.84856 1.77632044349 
328430.604512 4692168.66423 1.77632044349 
3 11 1 0 
3 11 12 1 
3 12 2 1 
3 12 13 2 
3 13 3 2 
3 13 14 3 
3 14 4 3 
3 14 15 4 
3 15 5 4 
3 15 16 5 
3 16 6 5 
3 16 17 6 
3 17 7 6 
3 17 18 7 
3 18 8 7 
3 18 19 8 
3 19 9 8 
3 19 20 9 
3 20 10 9 
3 20 21 10 
3 21 0 10 
3 0 21 11 
3 1 10 0 
3 2 3 1 
3 4 5 3 
3 6 7 5 
3 8 9 7 
3 10 1 9 
3 3 5 1 
3 7 9 5 
3 1 5 9 

