ply
format ascii 1.0
element vertex 16
property float x 
property float y 
property float z 
element face 22
property list uchar int vertex_index 
end_header
328565.544303 4692126.56722 73.7095194368 
328563.398454 4692108.21666 73.7095194368 
328572.337123 4692107.1409 73.7095194368 
328571.839741 4692102.6339 73.7095194368 
328599.515507 4692099.58495 73.7095194368 
328599.87078 4692103.32242 73.7095194368 
328618.188656 4692101.32934 73.7095194368 
328620.540564 4692119.66995 73.7095194368 
328565.544303 4692126.56722 1.88291775565 
328563.398454 4692108.21666 1.88291775565 
328572.337123 4692107.1409 1.88291775565 
328571.839741 4692102.6339 1.88291775565 
328599.515507 4692099.58495 1.88291775565 
328599.87078 4692103.32242 1.88291775565 
328618.188656 4692101.32934 1.88291775565 
328620.540564 4692119.66995 1.88291775565 
3 8 1 0 
3 8 9 1 
3 9 2 1 
3 9 10 2 
3 10 3 2 
3 10 11 3 
3 11 4 3 
3 11 12 4 
3 12 5 4 
3 12 13 5 
3 13 6 5 
3 13 14 6 
3 14 7 6 
3 14 15 7 
3 15 0 7 
3 0 15 8 
3 1 7 0 
3 3 4 2 
3 6 7 5 
3 2 7 1 
3 5 2 4 
3 7 2 5 

