ply
format ascii 1.0
element vertex 8
property float x 
property float y 
property float z 
element face 10
property list uchar int vertex_index 
end_header
328163.368872 4692093.27672 6.96949290889 
328166.493853 4692117.25339 6.96949290889 
328137.396284 4692120.89494 6.96949290889 
328134.528521 4692097.11722 6.96949290889 
328163.368872 4692093.27672 2.89717834915 
328166.493853 4692117.25339 2.89717834915 
328137.396284 4692120.89494 2.89717834915 
328134.528521 4692097.11722 2.89717834915 
3 4 1 0 
3 4 5 1 
3 5 2 1 
3 5 6 2 
3 6 3 2 
3 6 7 3 
3 7 0 3 
3 0 7 4 
3 1 3 0 
3 2 3 1 

