ply
format ascii 1.0
element vertex 16
property float x 
property float y 
property float z 
element face 22
property list uchar int vertex_index 
end_header
328017.071004 4691770.54531 18.9779614325 
328012.148341 4691768.25948 18.9779614325 
328017.520779 4691755.39078 18.9779614325 
328052.491722 4691770.12893 18.9779614325 
328046.88125 4691783.10421 18.9779614325 
328041.838505 4691780.92852 18.9779614325 
328042.237832 4691780.09931 18.9779614325 
328017.75597 4691769.63155 18.9779614325 
328017.071004 4691770.54531 3.85082828283 
328012.148341 4691768.25948 3.85082828283 
328017.520779 4691755.39078 3.85082828283 
328052.491722 4691770.12893 3.85082828283 
328046.88125 4691783.10421 3.85082828283 
328041.838505 4691780.92852 3.85082828283 
328042.237832 4691780.09931 3.85082828283 
328017.75597 4691769.63155 3.85082828283 
3 8 1 0 
3 8 9 1 
3 9 2 1 
3 9 10 2 
3 10 3 2 
3 10 11 3 
3 11 4 3 
3 11 12 4 
3 12 5 4 
3 12 13 5 
3 13 6 5 
3 13 14 6 
3 14 7 6 
3 14 15 7 
3 15 0 7 
3 0 15 8 
3 1 7 0 
3 2 3 1 
3 4 5 3 
3 1 3 7 
3 6 3 5 
3 7 3 6 

