ply
format ascii 1.0
element vertex 8
property float x 
property float y 
property float z 
element face 10
property list uchar int vertex_index 
end_header
328399.008663 4692058.9673 78.1017243138 
328393.589329 4692056.64808 78.1017243138 
328396.430802 4692049.68402 78.1017243138 
328402.613974 4692051.97837 78.1017243138 
328399.008663 4692058.9673 3.98267523722 
328393.589329 4692056.64808 3.98267523722 
328396.430802 4692049.68402 3.98267523722 
328402.613974 4692051.97837 3.98267523722 
3 4 1 0 
3 4 5 1 
3 5 2 1 
3 5 6 2 
3 6 3 2 
3 6 7 3 
3 7 0 3 
3 0 7 4 
3 1 3 0 
3 2 3 1 

