ply
format ascii 1.0
element vertex 16
property float x 
property float y 
property float z 
element face 22
property list uchar int vertex_index 
end_header
328189.813263 4691878.0225 33.0008162432 
328183.964048 4691876.8842 33.0008162432 
328184.231213 4691874.84209 33.0008162432 
328180.419845 4691874.05481 33.0008162432 
328181.634168 4691869.58547 33.0008162432 
328186.666254 4691870.67403 33.0008162432 
328187.28514 4691868.54808 33.0008162432 
328191.69692 4691869.53574 33.0008162432 
328189.813263 4691878.0225 1.9795224977 
328183.964048 4691876.8842 1.9795224977 
328184.231213 4691874.84209 1.9795224977 
328180.419845 4691874.05481 1.9795224977 
328181.634168 4691869.58547 1.9795224977 
328186.666254 4691870.67403 1.9795224977 
328187.28514 4691868.54808 1.9795224977 
328191.69692 4691869.53574 1.9795224977 
3 8 1 0 
3 8 9 1 
3 9 2 1 
3 9 10 2 
3 10 3 2 
3 10 11 3 
3 11 4 3 
3 11 12 4 
3 12 5 4 
3 12 13 5 
3 13 6 5 
3 13 14 6 
3 14 7 6 
3 14 15 7 
3 15 0 7 
3 0 15 8 
3 1 7 0 
3 3 4 2 
3 6 7 5 
3 2 7 1 
3 5 2 4 
3 7 2 5 

