ply
format ascii 1.0
element vertex 24
property float x 
property float y 
property float z 
element face 34
property list uchar int vertex_index 
end_header
328582.128447 4692011.66057 75.3063973064 
328592.005036 4691988.58914 75.3063973064 
328627.738394 4692003.5774 75.3063973064 
328624.917527 4692009.46285 75.3063973064 
328628.29262 4692011.11061 75.3063973064 
328630.104513 4692024.75593 75.3063973064 
328631.745874 4692024.6394 75.3063973064 
328633.387235 4692037.55642 75.3063973064 
328599.124707 4692042.0563 75.3063973064 
328598.371528 4692036.39965 75.3063973064 
328587.848342 4692032.14206 75.3063973064 
328585.695388 4692013.33248 75.3063973064 
328582.128447 4692011.66057 2.80462379932 
328592.005036 4691988.58914 2.80462379932 
328627.738394 4692003.5774 2.80462379932 
328624.917527 4692009.46285 2.80462379932 
328628.29262 4692011.11061 2.80462379932 
328630.104513 4692024.75593 2.80462379932 
328631.745874 4692024.6394 2.80462379932 
328633.387235 4692037.55642 2.80462379932 
328599.124707 4692042.0563 2.80462379932 
328598.371528 4692036.39965 2.80462379932 
328587.848342 4692032.14206 2.80462379932 
328585.695388 4692013.33248 2.80462379932 
3 12 1 0 
3 12 13 1 
3 13 2 1 
3 13 14 2 
3 14 3 2 
3 14 15 3 
3 15 4 3 
3 15 16 4 
3 16 5 4 
3 16 17 5 
3 17 6 5 
3 17 18 6 
3 18 7 6 
3 18 19 7 
3 19 8 7 
3 19 20 8 
3 20 9 8 
3 20 21 9 
3 21 10 9 
3 21 22 10 
3 22 11 10 
3 22 23 11 
3 23 0 11 
3 0 23 12 
3 1 11 0 
3 2 3 1 
3 4 5 3 
3 6 7 5 
3 8 9 7 
3 10 11 9 
3 1 3 11 
3 5 7 3 
3 9 11 7 
3 3 7 11 

