ply
format ascii 1.0
element vertex 12
property float x 
property float y 
property float z 
element face 16
property list uchar int vertex_index 
end_header
328177.734691 4691827.76913 15.9874502602 
328161.28413 4691866.84277 15.9874502602 
328157.680241 4691865.37123 15.9874502602 
328153.453913 4691874.55361 15.9874502602 
328146.475641 4691871.70716 15.9874502602 
328167.299613 4691823.53712 15.9874502602 
328177.734691 4691827.76913 2.92637894092 
328161.28413 4691866.84277 2.92637894092 
328157.680241 4691865.37123 2.92637894092 
328153.453913 4691874.55361 2.92637894092 
328146.475641 4691871.70716 2.92637894092 
328167.299613 4691823.53712 2.92637894092 
3 6 1 0 
3 6 7 1 
3 7 2 1 
3 7 8 2 
3 8 3 2 
3 8 9 3 
3 9 4 3 
3 9 10 4 
3 10 5 4 
3 10 11 5 
3 11 0 5 
3 0 11 6 
3 1 5 0 
3 3 4 2 
3 2 5 1 
3 5 2 4 

