ply
format ascii 1.0
element vertex 60
property float x 
property float y 
property float z 
element face 88
property list uchar int vertex_index 
end_header
328238.52048 4691878.54617 32.8397102336 
328242.314086 4691879.33203 32.8397102336 
328242.575566 4691878.15324 32.8397102336 
328252.189964 4691880.24935 32.8397102336 
328251.646397 4691881.95324 32.8397102336 
328261.169845 4691883.99961 32.8397102336 
328261.738992 4691881.32654 32.8397102336 
328271.28873 4691883.45817 32.8397102336 
328270.635028 4691886.01188 32.8397102336 
328277.110234 4691887.38749 32.8397102336 
328280.171976 4691880.44759 32.8397102336 
328278.67983 4691880.05253 32.8397102336 
328282.491199 4691869.87253 32.8397102336 
328284.239142 4691870.49142 32.8397102336 
328287.051483 4691864.40133 32.8397102336 
328285.184168 4691863.35541 32.8397102336 
328287.182223 4691859.09639 32.8397102336 
328288.555709 4691859.75152 32.8397102336 
328289.079381 4691858.96565 32.8397102336 
328301.287272 4691863.90182 32.8397102336 
328300.929867 4691864.79568 32.8397102336 
328302.422014 4691865.58013 32.8397102336 
328300.656307 4691869.96775 32.8397102336 
328299.183345 4691869.42773 32.8397102336 
328291.630241 4691887.25604 32.8397102336 
328292.938356 4691887.91117 32.8397102336 
328289.079381 4691897.4069 32.8397102336 
328287.433046 4691896.87541 32.8397102336 
328286.463151 4691899.24082 32.8397102336 
328235.96962 4691888.7624 32.8397102336 
328238.52048 4691878.54617 1.75042692872 
328242.314086 4691879.33203 1.75042692872 
328242.575566 4691878.15324 1.75042692872 
328252.189964 4691880.24935 1.75042692872 
328251.646397 4691881.95324 1.75042692872 
328261.169845 4691883.99961 1.75042692872 
328261.738992 4691881.32654 1.75042692872 
328271.28873 4691883.45817 1.75042692872 
328270.635028 4691886.01188 1.75042692872 
328277.110234 4691887.38749 1.75042692872 
328280.171976 4691880.44759 1.75042692872 
328278.67983 4691880.05253 1.75042692872 
328282.491199 4691869.87253 1.75042692872 
328284.239142 4691870.49142 1.75042692872 
328287.051483 4691864.40133 1.75042692872 
328285.184168 4691863.35541 1.75042692872 
328287.182223 4691859.09639 1.75042692872 
328288.555709 4691859.75152 1.75042692872 
328289.079381 4691858.96565 1.75042692872 
328301.287272 4691863.90182 1.75042692872 
328300.929867 4691864.79568 1.75042692872 
328302.422014 4691865.58013 1.75042692872 
328300.656307 4691869.96775 1.75042692872 
328299.183345 4691869.42773 1.75042692872 
328291.630241 4691887.25604 1.75042692872 
328292.938356 4691887.91117 1.75042692872 
328289.079381 4691897.4069 1.75042692872 
328287.433046 4691896.87541 1.75042692872 
328286.463151 4691899.24082 1.75042692872 
328235.96962 4691888.7624 1.75042692872 
3 30 1 0 
3 30 31 1 
3 31 2 1 
3 31 32 2 
3 32 3 2 
3 32 33 3 
3 33 4 3 
3 33 34 4 
3 34 5 4 
3 34 35 5 
3 35 6 5 
3 35 36 6 
3 36 7 6 
3 36 37 7 
3 37 8 7 
3 37 38 8 
3 38 9 8 
3 38 39 9 
3 39 10 9 
3 39 40 10 
3 40 11 10 
3 40 41 11 
3 41 12 11 
3 41 42 12 
3 42 13 12 
3 42 43 13 
3 43 14 13 
3 43 44 14 
3 44 15 14 
3 44 45 15 
3 45 16 15 
3 45 46 16 
3 46 17 16 
3 46 47 17 
3 47 18 17 
3 47 48 18 
3 48 19 18 
3 48 49 19 
3 49 20 19 
3 49 50 20 
3 50 21 20 
3 50 51 21 
3 51 22 21 
3 51 52 22 
3 52 23 22 
3 52 53 23 
3 53 24 23 
3 53 54 24 
3 54 25 24 
3 54 55 25 
3 55 26 25 
3 55 56 26 
3 56 27 26 
3 56 57 27 
3 57 28 27 
3 57 58 28 
3 58 29 28 
3 58 59 29 
3 59 0 29 
3 0 59 30 
3 1 29 0 
3 2 3 1 
3 6 7 5 
3 11 12 10 
3 15 16 14 
3 18 19 17 
3 21 22 20 
3 25 26 24 
3 28 29 27 
3 1 3 29 
3 8 5 7 
3 13 10 12 
3 17 14 16 
3 20 17 19 
3 23 20 22 
3 27 24 26 
3 4 29 3 
3 14 10 13 
3 17 20 14 
3 24 20 23 
3 29 24 27 
3 5 29 4 
3 14 20 10 
3 8 29 5 
3 10 20 9 
3 9 29 8 
3 24 9 20 
3 29 9 24 

