ply
format ascii 1.0
element vertex 8
property float x 
property float y 
property float z 
element face 10
property list uchar int vertex_index 
end_header
328382.627736 4692052.00324 77.9660238751 
328378.430541 4692050.31214 77.9660238751 
328381.417676 4692043.15339 77.9660238751 
328385.546659 4692044.79191 77.9660238751 
328382.627736 4692052.00324 3.67740196579 
328378.430541 4692050.31214 3.67740196579 
328381.417676 4692043.15339 3.67740196579 
328385.546659 4692044.79191 3.67740196579 
3 4 1 0 
3 4 5 1 
3 5 2 1 
3 5 6 2 
3 6 3 2 
3 6 7 3 
3 7 0 3 
3 0 7 4 
3 1 3 0 
3 2 3 1 

