ply
format ascii 1.0
element vertex 16
property float x 
property float y 
property float z 
element face 22
property list uchar int vertex_index 
end_header
328000.430727 4691795.76969 18.9084787267 
328005.378259 4691797.76348 18.9084787267 
328004.928483 4691798.75754 18.9084787267 
328029.394003 4691809.10948 18.9084787267 
328029.830989 4691808.0998 18.9084787267 
328034.84318 4691809.98985 18.9084787267 
328029.439478 4691822.67523 18.9084787267 
327995.266478 4691808.06995 18.9084787267 
328000.430727 4691795.76969 0.905081714351 
328005.378259 4691797.76348 0.905081714351 
328004.928483 4691798.75754 0.905081714351 
328029.394003 4691809.10948 0.905081714351 
328029.830989 4691808.0998 0.905081714351 
328034.84318 4691809.98985 0.905081714351 
328029.439478 4691822.67523 0.905081714351 
327995.266478 4691808.06995 0.905081714351 
3 8 1 0 
3 8 9 1 
3 9 2 1 
3 9 10 2 
3 10 3 2 
3 10 11 3 
3 11 4 3 
3 11 12 4 
3 12 5 4 
3 12 13 5 
3 13 6 5 
3 13 14 6 
3 14 7 6 
3 14 15 7 
3 15 0 7 
3 0 15 8 
3 1 7 0 
3 4 5 3 
3 6 7 5 
3 2 7 1 
3 5 7 3 
3 3 7 2 

