ply
format ascii 1.0
element vertex 16
property float x 
property float y 
property float z 
element face 22
property list uchar int vertex_index 
end_header
328382.630578 4692052.14037 80.821650852 
328385.462814 4692044.82175 80.821650852 
328381.377885 4692043.22871 80.821650852 
328387.210757 4692029.41782 80.821650852 
328408.154811 4692038.06304 80.821650852 
328402.475417 4692052.03237 80.821650852 
328396.96158 4692049.78278 80.821650852 
328393.607093 4692056.64595 80.821650852 
328382.630578 4692052.14037 1.80860796517 
328385.462814 4692044.82175 1.80860796517 
328381.377885 4692043.22871 1.80860796517 
328387.210757 4692029.41782 1.80860796517 
328408.154811 4692038.06304 1.80860796517 
328402.475417 4692052.03237 1.80860796517 
328396.96158 4692049.78278 1.80860796517 
328393.607093 4692056.64595 1.80860796517 
3 8 1 0 
3 8 9 1 
3 9 2 1 
3 9 10 2 
3 10 3 2 
3 10 11 3 
3 11 4 3 
3 11 12 4 
3 12 5 4 
3 12 13 5 
3 13 6 5 
3 13 14 6 
3 14 7 6 
3 14 15 7 
3 15 0 7 
3 0 15 8 
3 1 7 0 
3 2 3 1 
3 4 5 3 
3 7 1 6 
3 3 5 1 
3 6 1 5 

