ply
format ascii 1.0
element vertex 16
property float x 
property float y 
property float z 
element face 22
property list uchar int vertex_index 
end_header
328210.832629 4691941.7589 15.0399959188 
328211.484205 4691940.46954 15.0399959188 
328196.770219 4691934.30627 15.0399959188 
328195.855746 4691924.87661 15.0399959188 
328201.824332 4691920.39733 15.0399959188 
328225.992133 4691930.3336 15.0399959188 
328220.204026 4691943.93417 15.0399959188 
328219.53729 4691945.15084 15.0399959188 
328210.832629 4691941.7589 2.89213090501 
328211.484205 4691940.46954 2.89213090501 
328196.770219 4691934.30627 2.89213090501 
328195.855746 4691924.87661 2.89213090501 
328201.824332 4691920.39733 2.89213090501 
328225.992133 4691930.3336 2.89213090501 
328220.204026 4691943.93417 2.89213090501 
328219.53729 4691945.15084 2.89213090501 
3 8 1 0 
3 8 9 1 
3 9 2 1 
3 9 10 2 
3 10 3 2 
3 10 11 3 
3 11 4 3 
3 11 12 4 
3 12 5 4 
3 12 13 5 
3 13 6 5 
3 13 14 6 
3 14 7 6 
3 14 15 7 
3 15 0 7 
3 0 15 8 
3 1 7 0 
3 2 3 1 
3 4 5 3 
3 6 7 5 
3 1 3 7 
3 5 7 3 

