ply
format ascii 1.0
element vertex 8
property float x 
property float y 
property float z 
element face 10
property list uchar int vertex_index 
end_header
328230.667526 4692005.20384 19.9577594123 
328237.870331 4692004.50253 19.9577594123 
328238.551034 4692011.60515 19.9577594123 
328230.947481 4692012.25601 19.9577594123 
328230.667526 4692005.20384 2.88542240588 
328237.870331 4692004.50253 2.88542240588 
328238.551034 4692011.60515 2.88542240588 
328230.947481 4692012.25601 2.88542240588 
3 4 1 0 
3 4 5 1 
3 5 2 1 
3 5 6 2 
3 6 3 2 
3 6 7 3 
3 7 0 3 
3 0 7 4 
3 1 3 0 
3 2 3 1 

