ply
format ascii 1.0
element vertex 8
property float x 
property float y 
property float z 
element face 10
property list uchar int vertex_index 
end_header
328008.459897 4691839.59404 19.0694827058 
328019.809448 4691844.1863 19.0694827058 
327983.015244 4691931.45271 19.0694827058 
327972.262552 4691926.58618 19.0694827058 
328008.459897 4691839.59404 2.98567110499 
328019.809448 4691844.1863 2.98567110499 
327983.015244 4691931.45271 2.98567110499 
327972.262552 4691926.58618 2.98567110499 
3 4 1 0 
3 4 5 1 
3 5 2 1 
3 5 6 2 
3 6 3 2 
3 6 7 3 
3 7 0 3 
3 0 7 4 
3 1 3 0 
3 2 3 1 

