ply
format ascii 1.0
element vertex 16
property float x 
property float y 
property float z 
element face 22
property list uchar int vertex_index 
end_header
328217.885197 4692102.29456 28.0379553107 
328216.217863 4692088.33345 28.0379553107 
328227.816815 4692086.85907 28.0379553107 
328227.227062 4692080.56434 28.0379553107 
328233.986486 4692079.94333 28.0379553107 
328234.865432 4692086.12366 28.0379553107 
328246.349276 4692085.19 28.0379553107 
328248.172497 4692098.70415 28.0379553107 
328217.885197 4692102.29456 2.82314476691 
328216.217863 4692088.33345 2.82314476691 
328227.816815 4692086.85907 2.82314476691 
328227.227062 4692080.56434 2.82314476691 
328233.986486 4692079.94333 2.82314476691 
328234.865432 4692086.12366 2.82314476691 
328246.349276 4692085.19 2.82314476691 
328248.172497 4692098.70415 2.82314476691 
3 8 1 0 
3 8 9 1 
3 9 2 1 
3 9 10 2 
3 10 3 2 
3 10 11 3 
3 11 4 3 
3 11 12 4 
3 12 5 4 
3 12 13 5 
3 13 6 5 
3 13 14 6 
3 14 7 6 
3 14 15 7 
3 15 0 7 
3 0 15 8 
3 1 7 0 
3 3 4 2 
3 6 7 5 
3 2 7 1 
3 5 2 4 
3 7 2 5 

