ply
format ascii 1.0
element vertex 12
property float x 
property float y 
property float z 
element face 16
property list uchar int vertex_index 
end_header
328123.612402 4692123.13031 11.9593918988 
328112.241535 4692124.68001 11.9593918988 
328112.115058 4692123.53106 11.9593918988 
328107.35582 4692124.08316 11.9593918988 
328105.266815 4692107.44927 11.9593918988 
328121.919882 4692105.58338 11.9593918988 
328123.612402 4692123.13031 1.94938951808 
328112.241535 4692124.68001 1.94938951808 
328112.115058 4692123.53106 1.94938951808 
328107.35582 4692124.08316 1.94938951808 
328105.266815 4692107.44927 1.94938951808 
328121.919882 4692105.58338 1.94938951808 
3 6 1 0 
3 6 7 1 
3 7 2 1 
3 7 8 2 
3 8 3 2 
3 8 9 3 
3 9 4 3 
3 9 10 4 
3 10 5 4 
3 10 11 5 
3 11 0 5 
3 0 11 6 
3 1 5 0 
3 3 4 2 
3 2 5 1 
3 5 2 4 

