ply
format ascii 1.0
element vertex 8
property float x 
property float y 
property float z 
element face 10
property list uchar int vertex_index 
end_header
328565.274296 4692126.69086 12.0126517702 
328557.046173 4692127.76236 12.0126517702 
328554.914535 4692110.02998 12.0126517702 
328563.000548 4692109.14251 12.0126517702 
328565.274296 4692126.69086 1.82846648301 
328557.046173 4692127.76236 1.82846648301 
328554.914535 4692110.02998 1.82846648301 
328563.000548 4692109.14251 1.82846648301 
3 4 1 0 
3 4 5 1 
3 5 2 1 
3 5 6 2 
3 6 3 2 
3 6 7 3 
3 7 0 3 
3 0 7 4 
3 1 3 0 
3 2 3 1 

