ply
format ascii 1.0
element vertex 16
property float x 
property float y 
property float z 
element face 22
property list uchar int vertex_index 
end_header
328223.660748 4692009.64494 20.0591776349 
328230.656868 4692008.8262 20.0591776349 
328231.046247 4692011.78704 20.0591776349 
328238.547481 4692011.11132 20.0591776349 
328239.752567 4692022.15533 20.0591776349 
328208.308065 4692026.18555 20.0591776349 
328206.521041 4692011.64636 20.0591776349 
328215.690512 4692010.57367 20.0591776349 
328223.660748 4692009.64494 2.84155880096 
328230.656868 4692008.8262 2.84155880096 
328231.046247 4692011.78704 2.84155880096 
328238.547481 4692011.11132 2.84155880096 
328239.752567 4692022.15533 2.84155880096 
328208.308065 4692026.18555 2.84155880096 
328206.521041 4692011.64636 2.84155880096 
328215.690512 4692010.57367 2.84155880096 
3 8 1 0 
3 8 9 1 
3 9 2 1 
3 9 10 2 
3 10 3 2 
3 10 11 3 
3 11 4 3 
3 11 12 4 
3 12 5 4 
3 12 13 5 
3 13 6 5 
3 13 14 6 
3 14 7 6 
3 14 15 7 
3 15 0 7 
3 0 15 8 
3 1 2 0 
3 3 4 2 
3 5 6 4 
3 7 0 6 
3 2 4 0 
3 6 0 4 

