ply
format ascii 1.0
element vertex 8
property float x 
property float y 
property float z 
element face 10
property list uchar int vertex_index 
end_header
328403.875903 4692183.32138 71.7719620447 
328380.840002 4692146.26711 71.7719620447 
328405.935776 4692130.76726 71.7719620447 
328428.733645 4692168.90653 71.7719620447 
328403.875903 4692183.32138 1.88774966664 
328380.840002 4692146.26711 1.88774966664 
328405.935776 4692130.76726 1.88774966664 
328428.733645 4692168.90653 1.88774966664 
3 4 1 0 
3 4 5 1 
3 5 2 1 
3 5 6 2 
3 6 3 2 
3 6 7 3 
3 7 0 3 
3 0 7 4 
3 1 3 0 
3 2 3 1 

