ply
format ascii 1.0
element vertex 112
property float x 
property float y 
property float z 
element face 166
property list uchar int vertex_index 
end_header
328233.65253 4692186.67657 79.0681563106 
328233.490525 4692184.01984 79.0681563106 
328237.142732 4692183.855 79.0681563106 
328237.029044 4692181.72762 79.0681563106 
328240.895125 4692181.46827 79.0681563106 
328240.738805 4692179.29613 79.0681563106 
328244.972949 4692178.93589 79.0681563106 
328244.88342 4692177.01031 79.0681563106 
328253.175492 4692176.21378 79.0681563106 
328253.217414 4692177.55743 79.0681563106 
328256.952044 4692177.36203 79.0681563106 
328257.887833 4692186.51457 79.0681563106 
328254.693218 4692186.88974 79.0681563106 
328255.195574 4692192.3915 79.0681563106 
328251.119882 4692192.82919 79.0681563106 
328251.22078 4692194.80948 79.0681563106 
328247.328409 4692195.07523 79.0681563106 
328247.422201 4692197.18981 79.0681563106 
328243.442433 4692197.43637 79.0681563106 
328243.539067 4692199.20918 79.0681563106 
328239.388057 4692199.59856 79.0681563106 
328239.629643 4692201.67691 79.0681563106 
328235.464422 4692202.1949 79.0681563106 
328235.689665 4692203.92579 79.0681563106 
328227.457279 4692204.79692 79.0681563106 
328227.360645 4692203.51651 79.0681563106 
328223.276427 4692203.8121 79.0681563106 
328223.123659 4692202.08832 79.0681563106 
328219.075679 4692202.41588 79.0681563106 
328218.937122 4692200.98413 79.0681563106 
328214.605634 4692201.12197 79.0681563106 
328214.582896 4692199.42803 79.0681563106 
328213.489366 4692199.4124 79.0681563106 
328213.398416 4692197.69004 79.0681563106 
328217.753352 4692197.27081 79.0681563106 
328217.894041 4692198.70257 79.0681563106 
328222.579381 4692198.34374 79.0681563106 
328222.658252 4692200.02205 79.0681563106 
328226.868237 4692199.66962 79.0681563106 
328226.97624 4692201.30743 79.0681563106 
328235.27968 4692200.39224 79.0681563106 
328235.244863 4692198.62512 79.0681563106 
328239.267264 4692198.11921 79.0681563106 
328239.115207 4692196.205 79.0681563106 
328243.06158 4692195.83693 79.0681563106 
328243.064422 4692193.88577 79.0681563106 
328246.801184 4692193.51132 79.0681563106 
328246.784841 4692191.66887 79.0681563106 
328250.809373 4692191.30436 79.0681563106 
328249.781924 4692179.63933 79.0681563106 
328244.761206 4692180.15305 79.0681563106 
328244.840077 4692181.74467 79.0681563106 
328241.049314 4692182.21079 79.0681563106 
328241.063525 4692184.32111 79.0681563106 
328237.156232 4692184.6842 79.0681563106 
328237.135626 4692186.45702 79.0681563106 
328233.65253 4692186.67657 7.62029384757 
328233.490525 4692184.01984 7.62029384757 
328237.142732 4692183.855 7.62029384757 
328237.029044 4692181.72762 7.62029384757 
328240.895125 4692181.46827 7.62029384757 
328240.738805 4692179.29613 7.62029384757 
328244.972949 4692178.93589 7.62029384757 
328244.88342 4692177.01031 7.62029384757 
328253.175492 4692176.21378 7.62029384757 
328253.217414 4692177.55743 7.62029384757 
328256.952044 4692177.36203 7.62029384757 
328257.887833 4692186.51457 7.62029384757 
328254.693218 4692186.88974 7.62029384757 
328255.195574 4692192.3915 7.62029384757 
328251.119882 4692192.82919 7.62029384757 
328251.22078 4692194.80948 7.62029384757 
328247.328409 4692195.07523 7.62029384757 
328247.422201 4692197.18981 7.62029384757 
328243.442433 4692197.43637 7.62029384757 
328243.539067 4692199.20918 7.62029384757 
328239.388057 4692199.59856 7.62029384757 
328239.629643 4692201.67691 7.62029384757 
328235.464422 4692202.1949 7.62029384757 
328235.689665 4692203.92579 7.62029384757 
328227.457279 4692204.79692 7.62029384757 
328227.360645 4692203.51651 7.62029384757 
328223.276427 4692203.8121 7.62029384757 
328223.123659 4692202.08832 7.62029384757 
328219.075679 4692202.41588 7.62029384757 
328218.937122 4692200.98413 7.62029384757 
328214.605634 4692201.12197 7.62029384757 
328214.582896 4692199.42803 7.62029384757 
328213.489366 4692199.4124 7.62029384757 
328213.398416 4692197.69004 7.62029384757 
328217.753352 4692197.27081 7.62029384757 
328217.894041 4692198.70257 7.62029384757 
328222.579381 4692198.34374 7.62029384757 
328222.658252 4692200.02205 7.62029384757 
328226.868237 4692199.66962 7.62029384757 
328226.97624 4692201.30743 7.62029384757 
328235.27968 4692200.39224 7.62029384757 
328235.244863 4692198.62512 7.62029384757 
328239.267264 4692198.11921 7.62029384757 
328239.115207 4692196.205 7.62029384757 
328243.06158 4692195.83693 7.62029384757 
328243.064422 4692193.88577 7.62029384757 
328246.801184 4692193.51132 7.62029384757 
328246.784841 4692191.66887 7.62029384757 
328250.809373 4692191.30436 7.62029384757 
328249.781924 4692179.63933 7.62029384757 
328244.761206 4692180.15305 7.62029384757 
328244.840077 4692181.74467 7.62029384757 
328241.049314 4692182.21079 7.62029384757 
328241.063525 4692184.32111 7.62029384757 
328237.156232 4692184.6842 7.62029384757 
328237.135626 4692186.45702 7.62029384757 
3 56 1 0 
3 56 57 1 
3 57 2 1 
3 57 58 2 
3 58 3 2 
3 58 59 3 
3 59 4 3 
3 59 60 4 
3 60 5 4 
3 60 61 5 
3 61 6 5 
3 61 62 6 
3 62 7 6 
3 62 63 7 
3 63 8 7 
3 63 64 8 
3 64 9 8 
3 64 65 9 
3 65 10 9 
3 65 66 10 
3 66 11 10 
3 66 67 11 
3 67 12 11 
3 67 68 12 
3 68 13 12 
3 68 69 13 
3 69 14 13 
3 69 70 14 
3 70 15 14 
3 70 71 15 
3 71 16 15 
3 71 72 16 
3 72 17 16 
3 72 73 17 
3 73 18 17 
3 73 74 18 
3 74 19 18 
3 74 75 19 
3 75 20 19 
3 75 76 20 
3 76 21 20 
3 76 77 21 
3 77 22 21 
3 77 78 22 
3 78 23 22 
3 78 79 23 
3 79 24 23 
3 79 80 24 
3 80 25 24 
3 80 81 25 
3 81 26 25 
3 81 82 26 
3 82 27 26 
3 82 83 27 
3 83 28 27 
3 83 84 28 
3 84 29 28 
3 84 85 29 
3 85 30 29 
3 85 86 30 
3 86 31 30 
3 86 87 31 
3 87 32 31 
3 87 88 32 
3 88 33 32 
3 88 89 33 
3 89 34 33 
3 89 90 34 
3 90 35 34 
3 90 91 35 
3 91 36 35 
3 91 92 36 
3 92 37 36 
3 92 93 37 
3 93 38 37 
3 93 94 38 
3 94 39 38 
3 94 95 39 
3 95 40 39 
3 95 96 40 
3 96 41 40 
3 96 97 41 
3 97 42 41 
3 97 98 42 
3 98 43 42 
3 98 99 43 
3 99 44 43 
3 99 100 44 
3 100 45 44 
3 100 101 45 
3 101 46 45 
3 101 102 46 
3 102 47 46 
3 102 103 47 
3 103 48 47 
3 103 104 48 
3 104 49 48 
3 104 105 49 
3 105 50 49 
3 105 106 50 
3 106 51 50 
3 106 107 51 
3 107 52 51 
3 107 108 52 
3 108 53 52 
3 108 109 53 
3 109 54 53 
3 109 110 54 
3 110 55 54 
3 110 111 55 
3 111 0 55 
3 0 111 56 
3 1 55 0 
3 3 4 2 
3 5 6 4 
3 7 8 6 
3 10 11 9 
3 13 14 12 
3 15 16 14 
3 17 18 16 
3 19 20 18 
3 21 22 20 
3 23 24 22 
3 26 27 25 
3 28 29 27 
3 30 31 29 
3 32 33 31 
3 34 35 33 
3 36 37 35 
3 38 39 37 
3 41 42 40 
3 43 44 42 
3 45 46 44 
3 47 48 46 
3 51 52 50 
3 53 54 52 
3 55 1 54 
3 4 6 2 
3 9 6 8 
3 12 9 11 
3 18 20 16 
3 22 24 20 
3 29 31 27 
3 33 35 31 
3 37 39 35 
3 46 48 44 
3 2 54 1 
3 14 9 12 
3 16 20 14 
3 25 20 24 
3 31 35 27 
3 44 48 42 
3 54 2 52 
3 27 35 25 
3 52 2 50 
3 39 25 35 
3 6 50 2 
3 40 25 39 
3 50 6 49 
3 25 40 20 
3 9 49 6 
3 20 40 14 
3 49 9 48 
3 42 14 40 
3 14 48 9 
3 48 14 42 

