ply
format ascii 1.0
element vertex 16
property float x 
property float y 
property float z 
element face 22
property list uchar int vertex_index 
end_header
328189.747182 4691879.00163 37.1389654117 
328192.019508 4691869.54213 37.1389654117 
328205.831101 4691872.59535 37.1389654117 
328204.755335 4691877.80365 37.1389654117 
328217.78959 4691880.25859 37.1389654117 
328218.985439 4691875.34942 37.1389654117 
328237.640824 4691879.48054 37.1389654117 
328235.488581 4691888.69987 37.1389654117 
328189.747182 4691879.00163 1.95810923084 
328192.019508 4691869.54213 1.95810923084 
328205.831101 4691872.59535 1.95810923084 
328204.755335 4691877.80365 1.95810923084 
328217.78959 4691880.25859 1.95810923084 
328218.985439 4691875.34942 1.95810923084 
328237.640824 4691879.48054 1.95810923084 
328235.488581 4691888.69987 1.95810923084 
3 8 1 0 
3 8 9 1 
3 9 2 1 
3 9 10 2 
3 10 3 2 
3 10 11 3 
3 11 4 3 
3 11 12 4 
3 12 5 4 
3 12 13 5 
3 13 6 5 
3 13 14 6 
3 14 7 6 
3 14 15 7 
3 15 0 7 
3 0 15 8 
3 1 2 0 
3 5 6 4 
3 3 0 2 
3 7 4 6 
3 0 3 7 
3 4 7 3 

