ply
format ascii 1.0
element vertex 8
property float x 
property float y 
property float z 
element face 10
property list uchar int vertex_index 
end_header
328246.543255 4692074.37336 15.0094888277 
328279.152343 4692070.63233 15.0094888277 
328282.674519 4692100.579 15.0094888277 
328249.600735 4692105.09879 15.0094888277 
328246.543255 4692074.37336 1.93513206936 
328279.152343 4692070.63233 1.93513206936 
328282.674519 4692100.579 1.93513206936 
328249.600735 4692105.09879 1.93513206936 
3 4 1 0 
3 4 5 1 
3 5 2 1 
3 5 6 2 
3 6 3 2 
3 6 7 3 
3 7 0 3 
3 0 7 4 
3 1 3 0 
3 2 3 1 

