ply
format ascii 1.0
element vertex 8
property float x 
property float y 
property float z 
element face 10
property list uchar int vertex_index 
end_header
328205.013973 4691877.54785 41.9971431487 
328205.922051 4691872.49658 41.9971431487 
328218.80425 4691874.98847 41.9971431487 
328217.694377 4691880.00634 41.9971431487 
328205.013973 4691877.54785 1.75104766675 
328205.922051 4691872.49658 1.75104766675 
328218.80425 4691874.98847 1.75104766675 
328217.694377 4691880.00634 1.75104766675 
3 4 1 0 
3 4 5 1 
3 5 2 1 
3 5 6 2 
3 6 3 2 
3 6 7 3 
3 7 0 3 
3 0 7 4 
3 1 3 0 
3 2 3 1 

