ply
format ascii 1.0
element vertex 24
property float x 
property float y 
property float z 
element face 34
property list uchar int vertex_index 
end_header
328001.725342 4691995.09845 28.0595857566 
328008.457765 4691994.25219 28.0595857566 
328010.72867 4692013.39714 28.0595857566 
328010.114048 4692013.42699 28.0595857566 
328011.238131 4692019.721 28.0595857566 
328014.383719 4692019.39699 28.0595857566 
328019.822238 4692063.64838 28.0595857566 
328018.654811 4692063.81891 28.0595857566 
328019.557915 4692070.39714 28.0595857566 
328021.155932 4692070.24366 28.0595857566 
328023.242096 4692089.07029 28.0595857566 
328013.732858 4692090.21782 28.0595857566 
328001.725342 4691995.09845 2.77438601703 
328008.457765 4691994.25219 2.77438601703 
328010.72867 4692013.39714 2.77438601703 
328010.114048 4692013.42699 2.77438601703 
328011.238131 4692019.721 2.77438601703 
328014.383719 4692019.39699 2.77438601703 
328019.822238 4692063.64838 2.77438601703 
328018.654811 4692063.81891 2.77438601703 
328019.557915 4692070.39714 2.77438601703 
328021.155932 4692070.24366 2.77438601703 
328023.242096 4692089.07029 2.77438601703 
328013.732858 4692090.21782 2.77438601703 
3 12 1 0 
3 12 13 1 
3 13 2 1 
3 13 14 2 
3 14 3 2 
3 14 15 3 
3 15 4 3 
3 15 16 4 
3 16 5 4 
3 16 17 5 
3 17 6 5 
3 17 18 6 
3 18 7 6 
3 18 19 7 
3 19 8 7 
3 19 20 8 
3 20 9 8 
3 20 21 9 
3 21 10 9 
3 21 22 10 
3 22 11 10 
3 22 23 11 
3 23 0 11 
3 0 23 12 
3 1 11 0 
3 2 3 1 
3 5 6 4 
3 9 10 8 
3 1 3 11 
3 7 4 6 
3 11 8 10 
3 4 11 3 
3 8 4 7 
3 11 4 8 

