ply
format ascii 1.0
element vertex 8
property float x 
property float y 
property float z 
element face 10
property list uchar int vertex_index 
end_header
328251.935589 4692134.33349 15.822671156 
328264.489516 4692133.08009 15.822671156 
328269.571341 4692175.7498 15.822671156 
328256.768012 4692177.26966 15.822671156 
328251.935589 4692134.33349 2.80319433653 
328264.489516 4692133.08009 2.80319433653 
328269.571341 4692175.7498 2.80319433653 
328256.768012 4692177.26966 2.80319433653 
3 4 1 0 
3 4 5 1 
3 5 2 1 
3 5 6 2 
3 6 3 2 
3 6 7 3 
3 7 0 3 
3 0 7 4 
3 1 3 0 
3 2 3 1 

