ply
format ascii 1.0
element vertex 8
property float x 
property float y 
property float z 
element face 10
property list uchar int vertex_index 
end_header
328508.331139 4692096.6035 21.996735027 
328535.203989 4692092.95343 21.996735027 
328539.019621 4692123.35058 21.996735027 
328512.345724 4692126.79034 21.996735027 
328508.331139 4692096.6035 1.91259055198 
328535.203989 4692092.95343 1.91259055198 
328539.019621 4692123.35058 1.91259055198 
328512.345724 4692126.79034 1.91259055198 
3 4 1 0 
3 4 5 1 
3 5 2 1 
3 5 6 2 
3 6 3 2 
3 6 7 3 
3 7 0 3 
3 0 7 4 
3 1 3 0 
3 2 3 1 

