ply
format ascii 1.0
element vertex 8
property float x 
property float y 
property float z 
element face 10
property list uchar int vertex_index 
end_header
328068.891123 4692190.87803 18.9779614325 
328064.541161 4692157.45963 18.9779614325 
328074.061056 4692156.58992 18.9779614325 
328078.385439 4692189.79587 18.9779614325 
328068.891123 4692190.87803 2.64474582656 
328064.541161 4692157.45963 2.64474582656 
328074.061056 4692156.58992 2.64474582656 
328078.385439 4692189.79587 2.64474582656 
3 4 1 0 
3 4 5 1 
3 5 2 1 
3 5 6 2 
3 6 3 2 
3 6 7 3 
3 7 0 3 
3 0 7 4 
3 1 3 0 
3 2 3 1 

