ply
format ascii 1.0
element vertex 8
property float x 
property float y 
property float z 
element face 10
property list uchar int vertex_index 
end_header
328206.377511 4692008.11281 8.03050709111 
328204.547855 4691992.52272 8.03050709111 
328235.966068 4691988.52519 8.03050709111 
328238.239104 4692003.90851 8.03050709111 
328206.377511 4692008.11281 2.85344825441 
328204.547855 4691992.52272 2.85344825441 
328235.966068 4691988.52519 2.85344825441 
328238.239104 4692003.90851 2.85344825441 
3 4 1 0 
3 4 5 1 
3 5 2 1 
3 5 6 2 
3 6 3 2 
3 6 7 3 
3 7 0 3 
3 0 7 4 
3 1 3 0 
3 2 3 1 

