ply
format ascii 1.0
element vertex 8
property float x 
property float y 
property float z 
element face 10
property list uchar int vertex_index 
end_header
328221.379269 4692189.03559 85.1950821345 
328237.916516 4692187.06382 85.1950821345 
328238.769882 4692194.33981 85.1950821345 
328222.133869 4692196.32153 85.1950821345 
328221.379269 4692189.03559 18.8571268238 
328237.916516 4692187.06382 18.8571268238 
328238.769882 4692194.33981 18.8571268238 
328222.133869 4692196.32153 18.8571268238 
3 4 1 0 
3 4 5 1 
3 5 2 1 
3 5 6 2 
3 6 3 2 
3 6 7 3 
3 7 0 3 
3 0 7 4 
3 1 3 0 
3 2 3 1 

