ply
format ascii 1.0
element vertex 8
property float x 
property float y 
property float z 
element face 10
property list uchar int vertex_index 
end_header
328324.014086 4692093.8345 36.9872461994 
328323.349015 4692087.28398 36.9872461994 
328329.969882 4692086.5244 36.9872461994 
328330.674033 4692093.06498 36.9872461994 
328324.014086 4692093.8345 2.89935720845 
328323.349015 4692087.28398 2.89935720845 
328329.969882 4692086.5244 2.89935720845 
328330.674033 4692093.06498 2.89935720845 
3 4 1 0 
3 4 5 1 
3 5 2 1 
3 5 6 2 
3 6 3 2 
3 6 7 3 
3 7 0 3 
3 0 7 4 
3 1 3 0 
3 2 3 1 

