ply
format ascii 1.0
element vertex 22
property float x 
property float y 
property float z 
element face 31
property list uchar int vertex_index 
end_header
327984.159934 4691997.34662 23.9169472503 
327983.519021 4691994.18185 23.9169472503 
328000.181325 4691987.50556 23.9169472503 
328001.86674 4691986.85256 23.9169472503 
328003.802978 4691987.11902 23.9169472503 
328004.752978 4691989.00197 23.9169472503 
328005.935327 4691994.35167 23.9169472503 
328001.285514 4691994.967 23.9169472503 
328000.509597 4691989.61588 23.9169472503 
327992.293554 4691992.98387 23.9169472503 
327992.60122 4691996.19482 23.9169472503 
327984.159934 4691997.34662 2.75236363636 
327983.519021 4691994.18185 2.75236363636 
328000.181325 4691987.50556 2.75236363636 
328001.86674 4691986.85256 2.75236363636 
328003.802978 4691987.11902 2.75236363636 
328004.752978 4691989.00197 2.75236363636 
328005.935327 4691994.35167 2.75236363636 
328001.285514 4691994.967 2.75236363636 
328000.509597 4691989.61588 2.75236363636 
327992.293554 4691992.98387 2.75236363636 
327992.60122 4691996.19482 2.75236363636 
3 11 1 0 
3 11 12 1 
3 12 2 1 
3 12 13 2 
3 13 3 2 
3 13 14 3 
3 14 4 3 
3 14 15 4 
3 15 5 4 
3 15 16 5 
3 16 6 5 
3 16 17 6 
3 17 7 6 
3 17 18 7 
3 18 8 7 
3 18 19 8 
3 19 9 8 
3 19 20 9 
3 20 10 9 
3 20 21 10 
3 21 0 10 
3 0 21 11 
3 1 10 0 
3 2 3 1 
3 4 5 3 
3 6 7 5 
3 10 1 9 
3 5 7 3 
3 9 1 8 
3 8 3 7 
3 3 8 1 

