ply
format ascii 1.0
element vertex 8
property float x 
property float y 
property float z 
element face 10
property list uchar int vertex_index 
end_header
328053.646359 4691858.14497 18.9577594123 
328064.945461 4691863.09037 18.9577594123 
328028.173995 4691949.95462 18.9577594123 
328016.96229 4691945.34318 18.9577594123 
328053.646359 4691858.14497 2.897180228 
328064.945461 4691863.09037 2.897180228 
328028.173995 4691949.95462 2.897180228 
328016.96229 4691945.34318 2.897180228 
3 4 1 0 
3 4 5 1 
3 5 2 1 
3 5 6 2 
3 6 3 2 
3 6 7 3 
3 7 0 3 
3 0 7 4 
3 1 3 0 
3 2 3 1 

