ply
format ascii 1.0
element vertex 8
property float x 
property float y 
property float z 
element face 10
property list uchar int vertex_index 
end_header
328102.762851 4692087.97321 25.0688705234 
328123.790039 4692085.09692 25.0688705234 
328126.221527 4692104.82239 25.0688705234 
328105.159523 4692107.21906 25.0688705234 
328102.762851 4692087.97321 0.855935983209 
328123.790039 4692085.09692 0.855935983209 
328126.221527 4692104.82239 0.855935983209 
328105.159523 4692107.21906 0.855935983209 
3 4 1 0 
3 4 5 1 
3 5 2 1 
3 5 6 2 
3 6 3 2 
3 6 7 3 
3 7 0 3 
3 0 7 4 
3 1 3 0 
3 2 3 1 

