ply
format ascii 1.0
element vertex 10
property float x 
property float y 
property float z 
element face 13
property list uchar int vertex_index 
end_header
328430.49722 4692169.54957 16.9674523008 
328450.617751 4692157.28839 16.9674523008 
328471.467302 4692154.93577 16.9674523008 
328473.76805 4692174.25055 16.9674523008 
328439.335701 4692186.2339 16.9674523008 
328430.49722 4692169.54957 2.8762473217 
328450.617751 4692157.28839 2.8762473217 
328471.467302 4692154.93577 2.8762473217 
328473.76805 4692174.25055 2.8762473217 
328439.335701 4692186.2339 2.8762473217 
3 5 1 0 
3 5 6 1 
3 6 2 1 
3 6 7 2 
3 7 3 2 
3 7 8 3 
3 8 4 3 
3 8 9 4 
3 9 0 4 
3 0 9 5 
3 1 4 0 
3 2 3 1 
3 4 1 3 

