ply
format ascii 1.0
element vertex 8
property float x 
property float y 
property float z 
element face 10
property list uchar int vertex_index 
end_header
328085.722537 4692053.55365 24.0505050505 
328086.296658 4692059.59329 24.0505050505 
328055.945686 4692063.58372 24.0505050505 
328055.234429 4692057.65847 24.0505050505 
328085.722537 4692053.55365 7.80374655647 
328086.296658 4692059.59329 7.80374655647 
328055.945686 4692063.58372 7.80374655647 
328055.234429 4692057.65847 7.80374655647 
3 4 1 0 
3 4 5 1 
3 5 2 1 
3 5 6 2 
3 6 3 2 
3 6 7 3 
3 7 0 3 
3 0 7 4 
3 1 3 0 
3 2 3 1 

