ply
format ascii 1.0
element vertex 8
property float x 
property float y 
property float z 
element face 10
property list uchar int vertex_index 
end_header
328102.936224 4691852.47197 13.0008162432 
328099.406232 4691851.06793 13.0008162432 
328103.054175 4691842.31898 13.0008162432 
328106.572799 4691843.75002 13.0008162432 
328102.936224 4691852.47197 2.94338842975 
328099.406232 4691851.06793 2.94338842975 
328103.054175 4691842.31898 2.94338842975 
328106.572799 4691843.75002 2.94338842975 
3 4 1 0 
3 4 5 1 
3 5 2 1 
3 5 6 2 
3 6 3 2 
3 6 7 3 
3 7 0 3 
3 0 7 4 
3 1 3 0 
3 2 3 1 

