ply
format ascii 1.0
element vertex 8
property float x 
property float y 
property float z 
element face 10
property list uchar int vertex_index 
end_header
328227.038768 4692080.66382 24.0101010101 
328227.773472 4692086.76457 24.0101010101 
328216.283943 4692088.14232 24.0101010101 
328215.435551 4692081.96199 24.0101010101 
328227.038768 4692080.66382 2.81881754609 
328227.773472 4692086.76457 2.81881754609 
328216.283943 4692088.14232 2.81881754609 
328215.435551 4692081.96199 2.81881754609 
3 4 1 0 
3 4 5 1 
3 5 2 1 
3 5 6 2 
3 6 3 2 
3 6 7 3 
3 7 0 3 
3 0 7 4 
3 1 3 0 
3 2 3 1 

