ply
format ascii 1.0
element vertex 12
property float x 
property float y 
property float z 
element face 16
property list uchar int vertex_index 
end_header
328052.721939 4692131.49131 26.9660238751 
328044.433419 4692065.18955 26.9660238751 
328074.360906 4692061.23465 26.9660238751 
328076.184167 4692074.06143 26.9660238751 
328070.213449 4692074.90058 26.9660238751 
328076.894713 4692128.68181 26.9660238751 
328052.721939 4692131.49131 1.8094790884 
328044.433419 4692065.18955 1.8094790884 
328074.360906 4692061.23465 1.8094790884 
328076.184167 4692074.06143 1.8094790884 
328070.213449 4692074.90058 1.8094790884 
328076.894713 4692128.68181 1.8094790884 
3 6 1 0 
3 6 7 1 
3 7 2 1 
3 7 8 2 
3 8 3 2 
3 8 9 3 
3 9 4 3 
3 9 10 4 
3 10 5 4 
3 10 11 5 
3 11 0 5 
3 0 11 6 
3 1 5 0 
3 2 3 1 
3 5 1 4 
3 4 1 3 

