ply
format ascii 1.0
element vertex 8
property float x 
property float y 
property float z 
element face 10
property list uchar int vertex_index 
end_header
327924.660233 4691898.32493 86.6044281196 
327930.704137 4691884.09767 86.6044281196 
327961.621415 4691897.16319 86.6044281196 
327955.390637 4691911.77272 86.6044281196 
327924.660233 4691898.32493 2.61535483661 
327930.704137 4691884.09767 2.61535483661 
327961.621415 4691897.16319 2.61535483661 
327955.390637 4691911.77272 2.61535483661 
3 4 1 0 
3 4 5 1 
3 5 2 1 
3 5 6 2 
3 6 3 2 
3 6 7 3 
3 7 0 3 
3 0 7 4 
3 1 3 0 
3 2 3 1 

