ply
format ascii 1.0
element vertex 44
property float x 
property float y 
property float z 
element face 64
property list uchar int vertex_index 
end_header
328204.747518 4692190.57179 79.2979287828 
328204.682148 4692189.50384 79.2979287828 
328202.218685 4692189.6495 79.2979287828 
328202.117077 4692187.8909 79.2979287828 
328204.46259 4692187.72392 79.2979287828 
328204.051894 4692182.32306 79.2979287828 
328212.361729 4692181.37519 79.2979287828 
328212.515918 4692182.98031 79.2979287828 
328216.672612 4692182.73873 79.2979287828 
328216.747219 4692184.14561 79.2979287828 
328220.916703 4692183.963 79.2979287828 
328220.954362 4692185.50133 79.2979287828 
328225.341273 4692185.31588 79.2979287828 
328225.510383 4692187.78787 79.2979287828 
328221.694751 4692188.04438 79.2979287828 
328221.652829 4692187.22369 79.2979287828 
328217.386711 4692187.31749 79.2979287828 
328217.331999 4692185.944 79.2979287828 
328213.099987 4692186.08966 79.2979287828 
328213.036748 4692184.53925 79.2979287828 
328208.175192 4692184.77302 79.2979287828 
328208.668311 4692189.99127 79.2979287828 
328204.747518 4692190.57179 12.811345781 
328204.682148 4692189.50384 12.811345781 
328202.218685 4692189.6495 12.811345781 
328202.117077 4692187.8909 12.811345781 
328204.46259 4692187.72392 12.811345781 
328204.051894 4692182.32306 12.811345781 
328212.361729 4692181.37519 12.811345781 
328212.515918 4692182.98031 12.811345781 
328216.672612 4692182.73873 12.811345781 
328216.747219 4692184.14561 12.811345781 
328220.916703 4692183.963 12.811345781 
328220.954362 4692185.50133 12.811345781 
328225.341273 4692185.31588 12.811345781 
328225.510383 4692187.78787 12.811345781 
328221.694751 4692188.04438 12.811345781 
328221.652829 4692187.22369 12.811345781 
328217.386711 4692187.31749 12.811345781 
328217.331999 4692185.944 12.811345781 
328213.099987 4692186.08966 12.811345781 
328213.036748 4692184.53925 12.811345781 
328208.175192 4692184.77302 12.811345781 
328208.668311 4692189.99127 12.811345781 
3 22 1 0 
3 22 23 1 
3 23 2 1 
3 23 24 2 
3 24 3 2 
3 24 25 3 
3 25 4 3 
3 25 26 4 
3 26 5 4 
3 26 27 5 
3 27 6 5 
3 27 28 6 
3 28 7 6 
3 28 29 7 
3 29 8 7 
3 29 30 8 
3 30 9 8 
3 30 31 9 
3 31 10 9 
3 31 32 10 
3 32 11 10 
3 32 33 11 
3 33 12 11 
3 33 34 12 
3 34 13 12 
3 34 35 13 
3 35 14 13 
3 35 36 14 
3 36 15 14 
3 36 37 15 
3 37 16 15 
3 37 38 16 
3 38 17 16 
3 38 39 17 
3 39 18 17 
3 39 40 18 
3 40 19 18 
3 40 41 19 
3 41 20 19 
3 41 42 20 
3 42 21 20 
3 42 43 21 
3 43 0 21 
3 0 43 22 
3 1 21 0 
3 2 3 1 
3 5 6 4 
3 8 9 7 
3 10 11 9 
3 12 13 11 
3 14 15 13 
3 16 17 15 
3 18 19 17 
3 21 1 20 
3 4 1 3 
3 9 11 7 
3 13 15 11 
3 17 19 15 
3 1 4 20 
3 11 15 7 
3 6 20 4 
3 19 7 15 
3 7 20 6 
3 20 7 19 

