ply
format ascii 1.0
element vertex 8
property float x 
property float y 
property float z 
element face 10
property list uchar int vertex_index 
end_header
328097.012402 4691984.1731 19.9977553311 
328052.071078 4691965.11838 19.9977553311 
328071.401482 4691919.22138 19.9977553311 
328116.32149 4691938.6072 19.9977553311 
328097.012402 4691984.1731 2.79411121314 
328052.071078 4691965.11838 2.79411121314 
328071.401482 4691919.22138 2.79411121314 
328116.32149 4691938.6072 2.79411121314 
3 4 1 0 
3 4 5 1 
3 5 2 1 
3 5 6 2 
3 6 3 2 
3 6 7 3 
3 7 0 3 
3 0 7 4 
3 1 3 0 
3 2 3 1 

