ply
format ascii 1.0
element vertex 8
property float x 
property float y 
property float z 
element face 10
property list uchar int vertex_index 
end_header
328219.53729 4691945.15084 7.00102030405 
328218.338132 4691947.3391 7.00102030405 
328209.839291 4691943.72455 7.00102030405 
328210.832629 4691941.7589 7.00102030405 
328219.53729 4691945.15084 2.89213090501 
328218.338132 4691947.3391 2.89213090501 
328209.839291 4691943.72455 2.89213090501 
328210.832629 4691941.7589 2.89213090501 
3 4 1 0 
3 4 5 1 
3 5 2 1 
3 5 6 2 
3 6 3 2 
3 6 7 3 
3 7 0 3 
3 0 7 4 
3 1 3 0 
3 2 3 1 

