ply
format ascii 1.0
element vertex 8
property float x 
property float y 
property float z 
element face 10
property list uchar int vertex_index 
end_header
328134.904399 4691854.58869 16.0721354964 
328130.526015 4691865.00529 16.0721354964 
328103.046359 4691853.50724 16.0721354964 
328107.448191 4691843.21569 16.0721354964 
328134.904399 4691854.58869 2.88914779104 
328130.526015 4691865.00529 2.88914779104 
328103.046359 4691853.50724 2.88914779104 
328107.448191 4691843.21569 2.88914779104 
3 4 1 0 
3 4 5 1 
3 5 2 1 
3 5 6 2 
3 6 3 2 
3 6 7 3 
3 7 0 3 
3 0 7 4 
3 1 3 0 
3 2 3 1 

