ply
format ascii 1.0
element vertex 8
property float x 
property float y 
property float z 
element face 10
property list uchar int vertex_index 
end_header
328162.930386 4692009.91703 23.9256198347 
328159.795442 4691984.07986 23.9256198347 
328180.309881 4691991.78896 23.9256198347 
328183.831732 4692019.59552 23.9256198347 
328162.930386 4692009.91703 2.85261205022 
328159.795442 4691984.07986 2.85261205022 
328180.309881 4691991.78896 2.85261205022 
328183.831732 4692019.59552 2.85261205022 
3 4 1 0 
3 4 5 1 
3 5 2 1 
3 5 6 2 
3 6 3 2 
3 6 7 3 
3 7 0 3 
3 0 7 4 
3 1 3 0 
3 2 3 1 

