ply
format ascii 1.0
element vertex 30
property float x 
property float y 
property float z 
element face 43
property list uchar int vertex_index 
end_header
328564.272426 4692049.62362 12.6798285889 
328562.552904 4692034.99561 12.6798285889 
328580.892097 4691990.62201 12.6798285889 
328589.646023 4691993.86281 12.6798285889 
328582.313189 4692011.87942 12.6798285889 
328585.333009 4692013.53428 12.6798285889 
328587.50728 4692032.26711 12.6798285889 
328598.24363 4692036.65615 12.6798285889 
328598.847594 4692042.29931 12.6798285889 
328633.53645 4692037.90103 12.6798285889 
328632.115358 4692024.52074 12.6798285889 
328630.37452 4692024.69624 12.6798285889 
328628.413413 4692009.54456 12.6798285889 
328655.804961 4692020.21838 12.6798285889 
328657.908178 4692038.32665 12.6798285889 
328564.272426 4692049.62362 2.60851655257 
328562.552904 4692034.99561 2.60851655257 
328580.892097 4691990.62201 2.60851655257 
328589.646023 4691993.86281 2.60851655257 
328582.313189 4692011.87942 2.60851655257 
328585.333009 4692013.53428 2.60851655257 
328587.50728 4692032.26711 2.60851655257 
328598.24363 4692036.65615 2.60851655257 
328598.847594 4692042.29931 2.60851655257 
328633.53645 4692037.90103 2.60851655257 
328632.115358 4692024.52074 2.60851655257 
328630.37452 4692024.69624 2.60851655257 
328628.413413 4692009.54456 2.60851655257 
328655.804961 4692020.21838 2.60851655257 
328657.908178 4692038.32665 2.60851655257 
3 15 1 0 
3 15 16 1 
3 16 2 1 
3 16 17 2 
3 17 3 2 
3 17 18 3 
3 18 4 3 
3 18 19 4 
3 19 5 4 
3 19 20 5 
3 20 6 5 
3 20 21 6 
3 21 7 6 
3 21 22 7 
3 22 8 7 
3 22 23 8 
3 23 9 8 
3 23 24 9 
3 24 10 9 
3 24 25 10 
3 25 11 10 
3 25 26 11 
3 26 12 11 
3 26 27 12 
3 27 13 12 
3 27 28 13 
3 28 14 13 
3 28 29 14 
3 29 0 14 
3 0 29 15 
3 1 2 0 
3 3 4 2 
3 5 6 4 
3 7 8 6 
3 11 12 10 
3 13 14 12 
3 2 4 0 
3 12 14 10 
3 6 0 4 
3 10 14 9 
3 8 0 6 
3 9 14 8 
3 0 8 14 

