ply
format ascii 1.0
element vertex 8
property float x 
property float y 
property float z 
element face 10
property list uchar int vertex_index 
end_header
328248.172497 4692098.70415 24.0808080808 
328249.056457 4692105.27785 24.0808080808 
328218.724669 4692109.19295 24.0808080808 
328217.885197 4692102.29456 24.0808080808 
328248.172497 4692098.70415 2.82314476691 
328249.056457 4692105.27785 2.82314476691 
328218.724669 4692109.19295 2.82314476691 
328217.885197 4692102.29456 2.82314476691 
3 4 1 0 
3 4 5 1 
3 5 2 1 
3 5 6 2 
3 6 3 2 
3 6 7 3 
3 7 0 3 
3 0 7 4 
3 1 3 0 
3 2 3 1 

