ply
format ascii 1.0
element vertex 8
property float x 
property float y 
property float z 
element face 10
property list uchar int vertex_index 
end_header
328074.468199 4692156.39666 51.9916335068 
328122.851408 4692150.22627 51.9916335068 
328126.777174 4692183.69654 51.9916335068 
328079.164197 4692189.70137 51.9916335068 
328074.468199 4692156.39666 2.67529857144 
328122.851408 4692150.22627 2.67529857144 
328126.777174 4692183.69654 2.67529857144 
328079.164197 4692189.70137 2.67529857144 
3 4 1 0 
3 4 5 1 
3 5 2 1 
3 5 6 2 
3 6 3 2 
3 6 7 3 
3 7 0 3 
3 0 7 4 
3 1 3 0 
3 2 3 1 

