ply
format ascii 1.0
element vertex 8
property float x 
property float y 
property float z 
element face 10
property list uchar int vertex_index 
end_header
327992.437084 4691993.0265 34.1698806244 
328000.385962 4691989.73951 34.1698806244 
328013.830203 4692093.98443 34.1698806244 
328005.867114 4692097.15844 34.1698806244 
327992.437084 4691993.0265 23.8604615175 
328000.385962 4691989.73951 23.8604615175 
328013.830203 4692093.98443 23.8604615175 
328005.867114 4692097.15844 23.8604615175 
3 4 1 0 
3 4 5 1 
3 5 2 1 
3 5 6 2 
3 6 3 2 
3 6 7 3 
3 7 0 3 
3 0 7 4 
3 1 3 0 
3 2 3 1 

