ply
format ascii 1.0
element vertex 8
property float x 
property float y 
property float z 
element face 10
property list uchar int vertex_index 
end_header
328123.163337 4692150.25967 19.0694827058 
328132.554624 4692149.18604 19.0694827058 
328136.711318 4692182.25414 19.0694827058 
328127.209897 4692183.5452 19.0694827058 
328123.163337 4692150.25967 2.61119885726 
328132.554624 4692149.18604 2.61119885726 
328136.711318 4692182.25414 2.61119885726 
328127.209897 4692183.5452 2.61119885726 
3 4 1 0 
3 4 5 1 
3 5 2 1 
3 5 6 2 
3 6 3 2 
3 6 7 3 
3 7 0 3 
3 0 7 4 
3 1 3 0 
3 2 3 1 

