ply
format ascii 1.0
element vertex 8
property float x 
property float y 
property float z 
element face 10
property list uchar int vertex_index 
end_header
328017.694152 4691770.16375 23.9961228446 
328041.734055 4691780.17889 23.9961228446 
328029.451557 4691808.72934 23.9961228446 
328005.537421 4691798.60548 23.9961228446 
328017.694152 4691770.16375 4.90103866952 
328041.734055 4691780.17889 4.90103866952 
328029.451557 4691808.72934 4.90103866952 
328005.537421 4691798.60548 4.90103866952 
3 4 1 0 
3 4 5 1 
3 5 2 1 
3 5 6 2 
3 6 3 2 
3 6 7 3 
3 7 0 3 
3 0 7 4 
3 1 3 0 
3 2 3 1 

