ply
format ascii 1.0
element vertex 8
property float x 
property float y 
property float z 
element face 10
property list uchar int vertex_index 
end_header
328155.334177 4691947.31159 16.1349862259 
328152.045611 4691920.20832 16.1349862259 
328172.259934 4691928.2311 16.1349862259 
328175.278664 4691952.0653 16.1349862259 
328155.334177 4691947.31159 2.85261205022 
328152.045611 4691920.20832 2.85261205022 
328172.259934 4691928.2311 2.85261205022 
328175.278664 4691952.0653 2.85261205022 
3 4 1 0 
3 4 5 1 
3 5 2 1 
3 5 6 2 
3 6 3 2 
3 6 7 3 
3 7 0 3 
3 0 7 4 
3 1 3 0 
3 2 3 1 

