ply
format ascii 1.0
element vertex 8
property float x 
property float y 
property float z 
element face 10
property list uchar int vertex_index 
end_header
328151.082821 4691860.66741 22.9779614325 
328146.388954 4691871.5949 22.9779614325 
328130.654624 4691865.04366 22.9779614325 
328135.456494 4691853.86109 22.9779614325 
328151.082821 4691860.66741 3.74810325477 
328146.388954 4691871.5949 3.74810325477 
328130.654624 4691865.04366 3.74810325477 
328135.456494 4691853.86109 3.74810325477 
3 4 1 0 
3 4 5 1 
3 5 2 1 
3 5 6 2 
3 6 3 2 
3 6 7 3 
3 7 0 3 
3 0 7 4 
3 1 3 0 
3 2 3 1 

