ply
format ascii 1.0
element vertex 24
property float x 
property float y 
property float z 
element face 34
property list uchar int vertex_index 
end_header
328004.864534 4692091.44778 27.8848076727 
327997.737757 4692092.44396 27.8848076727 
327995.542881 4692073.3388 27.8848076727 
327996.796284 4692073.20664 27.8848076727 
327996.178819 4692066.67672 27.8848076727 
327994.459298 4692066.79965 27.8848076727 
327988.946882 4692022.71737 27.8848076727 
327990.477398 4692022.56248 27.8848076727 
327989.78959 4692015.9409 27.8848076727 
327985.225753 4692016.3253 27.8848076727 
327983.164459 4691997.7296 27.8848076727 
327992.667301 4691996.36678 27.8848076727 
328004.864534 4692091.44778 3.11155123318 
327997.737757 4692092.44396 3.11155123318 
327995.542881 4692073.3388 3.11155123318 
327996.796284 4692073.20664 3.11155123318 
327996.178819 4692066.67672 3.11155123318 
327994.459298 4692066.79965 3.11155123318 
327988.946882 4692022.71737 3.11155123318 
327990.477398 4692022.56248 3.11155123318 
327989.78959 4692015.9409 3.11155123318 
327985.225753 4692016.3253 3.11155123318 
327983.164459 4691997.7296 3.11155123318 
327992.667301 4691996.36678 3.11155123318 
3 12 1 0 
3 12 13 1 
3 13 2 1 
3 13 14 2 
3 14 3 2 
3 14 15 3 
3 15 4 3 
3 15 16 4 
3 16 5 4 
3 16 17 5 
3 17 6 5 
3 17 18 6 
3 18 7 6 
3 18 19 7 
3 19 8 7 
3 19 20 8 
3 20 9 8 
3 20 21 9 
3 21 10 9 
3 21 22 10 
3 22 11 10 
3 22 23 11 
3 23 0 11 
3 0 23 12 
3 1 2 0 
3 5 6 4 
3 9 10 8 
3 3 0 2 
3 7 4 6 
3 11 8 10 
3 0 3 11 
3 8 4 7 
3 4 11 3 
3 11 4 8 

