ply
format ascii 1.0
element vertex 8
property float x 
property float y 
property float z 
element face 10
property list uchar int vertex_index 
end_header
328178.459448 4691823.47601 13.9987756351 
328177.039777 4691826.89374 13.9987756351 
328168.294377 4691823.36233 13.9987756351 
328169.866815 4691819.86218 13.9987756351 
328178.459448 4691823.47601 2.90419685066 
328177.039777 4691826.89374 2.90419685066 
328168.294377 4691823.36233 2.90419685066 
328169.866815 4691819.86218 2.90419685066 
3 4 1 0 
3 4 5 1 
3 5 2 1 
3 5 6 2 
3 6 3 2 
3 6 7 3 
3 7 0 3 
3 0 7 4 
3 1 3 0 
3 2 3 1 

