ply
format ascii 1.0
element vertex 20
property float x 
property float y 
property float z 
element face 28
property list uchar int vertex_index 
end_header
328183.608775 4691877.76244 33.0288746046 
328172.013375 4691875.28476 33.0288746046 
328175.955484 4691866.07467 33.0288746046 
328181.882859 4691867.19449 33.0288746046 
328182.371004 4691864.86674 33.0288746046 
328187.462066 4691866.05193 33.0288746046 
328186.719545 4691870.55395 33.0288746046 
328181.491348 4691869.46184 33.0288746046 
328180.345237 4691874.24879 33.0288746046 
328184.063524 4691874.94868 33.0288746046 
328183.608775 4691877.76244 1.94528838165 
328172.013375 4691875.28476 1.94528838165 
328175.955484 4691866.07467 1.94528838165 
328181.882859 4691867.19449 1.94528838165 
328182.371004 4691864.86674 1.94528838165 
328187.462066 4691866.05193 1.94528838165 
328186.719545 4691870.55395 1.94528838165 
328181.491348 4691869.46184 1.94528838165 
328180.345237 4691874.24879 1.94528838165 
328184.063524 4691874.94868 1.94528838165 
3 10 1 0 
3 10 11 1 
3 11 2 1 
3 11 12 2 
3 12 3 2 
3 12 13 3 
3 13 4 3 
3 13 14 4 
3 14 5 4 
3 14 15 5 
3 15 6 5 
3 15 16 6 
3 16 7 6 
3 16 17 7 
3 17 8 7 
3 17 18 8 
3 18 9 8 
3 18 19 9 
3 19 0 9 
3 0 19 10 
3 1 9 0 
3 2 3 1 
3 4 5 3 
3 6 7 5 
3 9 1 8 
3 5 7 3 
3 8 1 7 
3 3 7 1 

