ply
format ascii 1.0
element vertex 12
property float x 
property float y 
property float z 
element face 16
property list uchar int vertex_index 
end_header
328183.831732 4692019.59552 28.0991735537 
328187.278035 4692046.80559 28.0991735537 
328103.559373 4692057.58102 28.0991735537 
328101.058962 4692038.28544 28.0991735537 
328165.349874 4692029.85765 28.0991735537 
328162.930386 4692009.91703 28.0991735537 
328183.831732 4692019.59552 2.85261205022 
328187.278035 4692046.80559 2.85261205022 
328103.559373 4692057.58102 2.85261205022 
328101.058962 4692038.28544 2.85261205022 
328165.349874 4692029.85765 2.85261205022 
328162.930386 4692009.91703 2.85261205022 
3 6 1 0 
3 6 7 1 
3 7 2 1 
3 7 8 2 
3 8 3 2 
3 8 9 3 
3 9 4 3 
3 9 10 4 
3 10 5 4 
3 10 11 5 
3 11 0 5 
3 0 11 6 
3 1 5 0 
3 2 3 1 
3 5 1 4 
3 4 1 3 

