ply
format ascii 1.0
element vertex 12
property float x 
property float y 
property float z 
element face 16
property list uchar int vertex_index 
end_header
328142.992545 4692148.23746 20.0595857566 
328193.439889 4692142.01805 20.0595857566 
328193.826426 4692146.29056 20.0595857566 
328198.532373 4692145.8621 20.0595857566 
328201.741909 4692173.40642 20.0595857566 
328147.066815 4692180.20279 20.0595857566 
328142.992545 4692148.23746 2.89849675203 
328193.439889 4692142.01805 2.89849675203 
328193.826426 4692146.29056 2.89849675203 
328198.532373 4692145.8621 2.89849675203 
328201.741909 4692173.40642 2.89849675203 
328147.066815 4692180.20279 2.89849675203 
3 6 1 0 
3 6 7 1 
3 7 2 1 
3 7 8 2 
3 8 3 2 
3 8 9 3 
3 9 4 3 
3 9 10 4 
3 10 5 4 
3 10 11 5 
3 11 0 5 
3 0 11 6 
3 1 5 0 
3 3 4 2 
3 2 5 1 
3 5 2 4 

