ply
format ascii 1.0
element vertex 12
property float x 
property float y 
property float z 
element face 16
property list uchar int vertex_index 
end_header
328264.610308 4692133.13409 56.9926538108 
328321.116479 4692126.06416 56.9926538108 
328323.670892 4692148.6112 56.9926538108 
328315.891834 4692149.44112 56.9926538108 
328281.450959 4692173.90948 56.9926538108 
328270.043143 4692175.37392 56.9926538108 
328264.610308 4692133.13409 2.44299881936 
328321.116479 4692126.06416 2.44299881936 
328323.670892 4692148.6112 2.44299881936 
328315.891834 4692149.44112 2.44299881936 
328281.450959 4692173.90948 2.44299881936 
328270.043143 4692175.37392 2.44299881936 
3 6 1 0 
3 6 7 1 
3 7 2 1 
3 7 8 2 
3 8 3 2 
3 8 9 3 
3 9 4 3 
3 9 10 4 
3 10 5 4 
3 10 11 5 
3 11 0 5 
3 0 11 6 
3 1 5 0 
3 2 3 1 
3 4 5 3 
3 1 3 5 

